<?xml version="1.0" standalone="no"?><!DOCTYPE svg PUBLIC "-//W3C//DTD SVG 1.1//EN" "http://www.w3.org/Graphics/SVG/1.1/DTD/svg11.dtd"><svg t="1587956928755" class="icon" viewBox="0 0 1024 1024" version="1.1" xmlns="http://www.w3.org/2000/svg" p-id="1100" xmlns:xlink="http://www.w3.org/1999/xlink" width="200" height="200"><defs><style type="text/css"></style></defs><path d="M876.97 418.46h-28.94c-4.27-84.79-38.67-163.9-97.97-224.41-30.89-31.52-66.88-56.28-106.96-73.58-41.52-17.92-85.64-27.01-131.1-27.01s-89.58 9.09-131.11 27.01c-40.08 17.3-76.07 42.05-106.96 73.58-59.3 60.51-93.7 139.62-97.97 224.41h-28.94c-27.31 0-49.53 22.22-49.53 49.53v222.95c0 27.31 22.22 49.53 49.53 49.53h105.95c27.31 0 49.53-22.22 49.53-49.53V467.99c0-27.31-22.22-49.53-49.53-49.53h-40.95c4.23-75.3 34.95-145.47 87.62-199.21 56.74-57.9 132.16-89.79 212.36-89.79s155.61 31.89 212.36 89.79c52.66 53.74 83.38 123.91 87.62 199.21h-40.95c-27.31 0-49.53 22.22-49.53 49.53v222.95c0 27.31 22.22 49.53 49.53 49.53h4.33c-52.49 97.43-153.09 159-263.35 159-9.94 0-18 8.06-18 18s8.06 18 18 18c129.94 0 247.85-76.15 303.64-195h61.33c27.31 0 49.53-22.22 49.53-49.53V467.99c-0.01-27.31-22.23-49.53-49.54-49.53zM266.5 467.99v222.95c0 7.46-6.07 13.53-13.53 13.53H147.03c-7.46 0-13.53-6.07-13.53-13.53V467.99c0-7.46 6.07-13.53 13.53-13.53h105.95c7.45 0 13.52 6.07 13.52 13.53z m624 222.95c0 7.46-6.07 13.53-13.53 13.53H771.02c-7.46 0-13.53-6.07-13.53-13.53V467.99c0-7.46 6.07-13.53 13.53-13.53h105.95c7.46 0 13.53 6.07 13.53 13.53v222.95z" p-id="1101" fill="#d4237a"></path></svg>