<?xml version="1.0" standalone="no"?><!DOCTYPE svg PUBLIC "-//W3C//DTD SVG 1.1//EN" "http://www.w3.org/Graphics/SVG/1.1/DTD/svg11.dtd"><svg t="1587956912359" class="icon" viewBox="0 0 1024 1024" version="1.1" xmlns="http://www.w3.org/2000/svg" p-id="951" xmlns:xlink="http://www.w3.org/1999/xlink" width="200" height="200"><defs><style type="text/css"></style></defs><path d="M763.77 950.87c-6.98 0-13.99-1.68-20.47-5.09l-210.56-110.7a40.26 40.26 0 0 0-37.48 0L284.7 945.78c-14.9 7.83-32.62 6.55-46.23-3.34-13.62-9.89-20.31-26.35-17.46-42.94l40.21-234.46a40.286 40.286 0 0 0-11.58-35.65L79.29 463.34c-12.05-11.75-16.31-28.99-11.11-45 5.2-16.01 18.78-27.46 35.44-29.88l235.41-34.21a40.286 40.286 0 0 0 30.33-22.03L474.63 118.9c7.45-15.09 22.54-24.47 39.37-24.47s31.92 9.38 39.37 24.47l105.28 213.32a40.27 40.27 0 0 0 30.32 22.03l235.41 34.21c16.66 2.42 30.24 13.87 35.44 29.88 5.2 16.01 0.95 33.25-11.11 45L778.37 629.39a40.277 40.277 0 0 0-11.58 35.65L807 899.5c2.85 16.59-3.85 33.04-17.46 42.94-7.7 5.58-16.7 8.43-25.77 8.43zM514 794.45c12.19 0 24.38 2.92 35.49 8.76l210.56 110.7c3.78 1.99 6.84 0.48 8.32-0.6 1.48-1.08 3.87-3.52 3.14-7.73L731.3 671.12a76.264 76.264 0 0 1 21.94-67.51l170.35-166.05c3.06-2.98 2.57-6.35 2-8.1-0.57-1.75-2.15-4.76-6.38-5.38L683.8 389.87a76.25 76.25 0 0 1-57.43-41.73L521.08 134.83c-1.89-3.83-5.25-4.4-7.08-4.4s-5.19 0.57-7.08 4.4L401.64 348.15a76.25 76.25 0 0 1-57.43 41.73L108.8 424.09c-4.23 0.62-5.81 3.63-6.38 5.38-0.57 1.74-1.06 5.12 2 8.1l170.35 166.05a76.282 76.282 0 0 1 21.94 67.51L256.5 905.59c-0.72 4.21 1.66 6.65 3.14 7.73 1.48 1.08 4.54 2.59 8.32 0.6l210.56-110.7a76.06 76.06 0 0 1 35.48-8.77z" p-id="952"></path></svg>